<svg width="301" height="113" viewBox="0 0 301 113" fill="none" xmlns="http://www.w3.org/2000/svg">
<path d="M38.3207 85.8145V91.9189C34.2511 94.1387 29.5525 95.2486 24.225 95.2486C19.8964 95.2486 16.2245 94.3792 13.2093 92.6404C10.194 90.9015 7.80775 88.506 6.05041 85.4538C4.29307 82.4016 3.4144 79.0996 3.4144 75.5479C3.4144 69.9059 5.42146 65.1611 9.4356 61.3135C13.4682 57.4658 18.435 55.542 24.336 55.542C28.4056 55.542 32.9285 56.6057 37.9045 58.733V64.6987C33.3724 62.1089 28.9421 60.814 24.6135 60.814C20.1739 60.814 16.4835 62.2199 13.5422 65.0316C10.6195 67.8249 9.15812 71.3303 9.15812 75.5479C9.15812 79.8025 10.601 83.2987 13.4867 86.0365C16.3725 88.7742 20.0629 90.1431 24.558 90.1431C29.2565 90.1431 33.8441 88.7002 38.3207 85.8145Z" fill="#2A2A2A"/>
<path d="M63.2099 69.277V75.1317L63.4874 74.6878C65.9292 70.7476 68.3709 68.7776 70.8127 68.7776C72.718 68.7776 74.7066 69.7395 76.7784 71.6633L74.1147 76.1029C72.3573 74.438 70.7295 73.6056 69.2311 73.6056C67.6033 73.6056 66.1881 74.3825 64.9857 75.9364C63.8019 77.4903 63.2099 79.3308 63.2099 81.4581V94.8047H58.1321V69.277H63.2099Z" fill="#2A2A2A"/>
<path d="M113.919 82.576H96.8274C96.9507 84.9006 97.7256 86.7497 99.1521 88.1233C100.596 89.497 102.454 90.1838 104.726 90.1838C107.896 90.1838 110.819 89.1976 113.496 87.2252V91.9272C112.017 92.9134 110.546 93.6179 109.084 94.0405C107.64 94.4632 105.941 94.6745 103.986 94.6745C101.309 94.6745 99.1433 94.1198 97.4878 93.0103C95.8324 91.9008 94.5028 90.4127 93.499 88.546C92.5128 86.6616 92.0197 84.4867 92.0197 82.0212C92.0197 78.323 93.0676 75.3204 95.1632 73.0134C97.2589 70.6888 99.9798 69.5265 103.326 69.5265C106.549 69.5265 109.12 70.6535 111.039 72.9077C112.959 75.1619 113.919 78.1821 113.919 81.9684V82.576ZM96.9331 79.6966H109.164C109.04 77.7771 108.468 76.2978 107.447 75.2587C106.425 74.2197 105.052 73.7002 103.326 73.7002C101.6 73.7002 100.182 74.2197 99.0728 75.2587C97.9809 76.2978 97.2677 77.7771 96.9331 79.6966Z" fill="#2A2A2A"/>
<path d="M147.057 79.6966V90.0253C147.057 90.853 147.339 91.2668 147.902 91.2668C148.483 91.2668 149.39 90.8354 150.623 89.9725V92.9046C149.531 93.6091 148.651 94.0846 147.982 94.3311C147.33 94.5953 146.643 94.7273 145.921 94.7273C143.861 94.7273 142.646 93.9173 142.276 92.2971C140.233 93.882 138.058 94.6745 135.751 94.6745C134.06 94.6745 132.651 94.1198 131.524 93.0103C130.397 91.8832 129.834 90.4744 129.834 88.7837C129.834 87.2516 130.38 85.8868 131.472 84.6893C132.581 83.4741 134.148 82.5143 136.174 81.8099L142.329 79.6966V78.4022C142.329 75.4789 140.867 74.0172 137.943 74.0172C135.319 74.0172 132.766 75.3732 130.283 78.0852V72.8285C132.15 70.6271 134.835 69.5265 138.34 69.5265C140.964 69.5265 143.068 70.2133 144.653 71.5869C145.181 72.0272 145.657 72.6171 146.08 73.3568C146.502 74.0788 146.766 74.8097 146.872 75.5493C146.995 76.2713 147.057 77.6538 147.057 79.6966ZM142.329 89.497V82.2854L139.106 83.5269C137.468 84.1785 136.306 84.8389 135.619 85.5081C134.95 86.1597 134.615 86.9786 134.615 87.9648C134.615 88.9686 134.932 89.7875 135.566 90.4215C136.218 91.0555 137.054 91.3725 138.076 91.3725C139.608 91.3725 141.025 90.7473 142.329 89.497Z" fill="#2A2A2A"/>
<path d="M164.962 73.8587L173.996 64.9829V70.0019H181.683V74.3342H173.996V86.2478C173.996 89.0303 175.15 90.4215 177.457 90.4215C179.183 90.4215 181.005 89.8404 182.925 88.6781V93.1688C181.076 94.2078 179.059 94.7273 176.876 94.7273C174.674 94.7273 172.843 94.0846 171.381 92.799C170.923 92.4115 170.545 91.9801 170.245 91.5046C169.946 91.0115 169.69 90.3775 169.479 89.6026C169.285 88.8102 169.188 87.3132 169.188 85.1119V74.3342H164.962V73.8587Z" fill="#2A2A2A"/>
<path d="M202.433 59.7789C203.225 59.7789 203.903 60.0519 204.467 60.5978C205.03 61.1438 205.312 61.813 205.312 62.6055C205.312 63.3803 205.03 64.0495 204.467 64.6131C203.903 65.1766 203.225 65.4584 202.433 65.4584C201.693 65.4584 201.042 65.1766 200.478 64.6131C199.914 64.0319 199.633 63.3627 199.633 62.6055C199.633 61.8658 199.914 61.2142 200.478 60.6507C201.042 60.0695 201.693 59.7789 202.433 59.7789ZM200.055 70.0019H204.863V94.3047H200.055V70.0019Z" fill="#2A2A2A"/>
<path d="M239.403 70.0019H244.607L233.882 94.7273H232.271L221.282 70.0019H226.538L233.09 84.9534L239.403 70.0019Z" fill="#2A2A2A"/>
<path d="M235.48 32.7084C232.12 36.0685 226.786 41.1087 219.478 47.829C219.226 48.081 219.1 48.459 219.1 48.963C219.1 49.467 219.184 49.9711 219.352 50.4751C219.604 50.9791 219.898 51.2311 220.234 51.2311H258.791C259.127 51.2311 259.379 51.1051 259.547 50.8531C259.799 50.5171 259.925 50.1811 259.925 49.8451L262.571 34.8504C262.571 34.5984 262.319 34.4724 261.815 34.4724C261.395 34.4724 261.143 34.5984 261.059 34.8504C260.471 36.7825 259.169 38.2106 257.153 39.1346C255.221 39.9747 252.533 40.5207 249.089 40.7727C245.729 41.0247 240.688 41.1507 233.968 41.1507C233.548 41.1507 233.254 41.0667 233.086 40.8987C233.002 40.7307 233.086 40.5207 233.338 40.2687L238.378 36.4885C244.343 32.2883 249.005 28.4242 252.365 24.896C255.809 21.2839 257.531 17.2937 257.531 12.9256C257.531 9.31342 256.229 6.4153 253.625 4.23121C251.021 2.04712 247.409 0.955078 242.789 0.955078C239.764 0.955078 236.446 1.5851 232.834 2.84516C231.386 3.27498 229.351 4.39293 228.145 5.85744C226.953 7.30459 225.044 10.9687 224.699 12.4906C224.617 13.0936 224.668 14.0067 225.524 12.8351C226.287 11.3352 227.044 10.0633 227.794 9.01941C229.81 6.24729 232.372 4.86123 235.48 4.86123C238.42 4.86123 240.688 6.03728 242.285 8.38938C243.881 10.6575 244.679 13.3456 244.679 16.4537C244.679 18.9738 243.965 21.4519 242.537 23.888C241.193 26.3241 238.84 29.2642 235.48 32.7084Z" fill="url(#paint0_linear_4568_3038)"/>
<path d="M259.696 52.1787C259.276 52.1787 258.57 52.1723 258.318 51.9203C258.066 51.5843 258.475 49.5253 258.475 49.5253L262.508 27.0964C262.592 26.5084 262.718 26.1724 262.886 26.0884C263.054 25.9204 263.474 25.7944 264.146 25.7104C274.73 24.4503 281.828 23.5683 285.441 23.0643C289.053 22.5602 291.363 22.0562 292.371 21.5522C293.463 20.9642 294.219 20.0401 294.639 18.7801C294.723 18.5281 294.975 18.4441 295.395 18.5281C295.899 18.5281 296.109 18.6961 296.025 19.0321L293.505 33.0187C293.253 33.9427 292.875 34.5727 292.371 34.9087C291.867 35.1607 291.069 35.2867 289.977 35.2867L266.036 35.7908C264.944 35.7908 264.314 36.3788 264.146 37.5548L262.32 47.3916C267.93 47.4628 272.826 47.991 277.01 48.976L272.186 53.3791L259.696 52.1787Z" fill="url(#paint1_linear_4568_3038)"/>
<path d="M300.639 80.3169C300.639 98.0932 286.942 112.504 270.046 112.504C260.568 112.504 252.097 107.969 246.485 100.85H255.778C259.898 104.229 264.897 106.321 270.046 106.321C282.718 106.321 294.372 93.649 294.372 80.3169C294.372 66.9847 282.718 54.3124 270.046 54.3124C265.848 54.3124 261.749 55.7034 258.146 58.0485C257.695 58.3337 257.556 58.0445 257.543 57.8642L258.318 50.5798C261.93 49.0013 265.891 48.13 270.046 48.13C286.942 48.13 300.639 62.5405 300.639 80.3169Z" fill="url(#paint2_linear_4568_3038)"/>
<path d="M254.598 111.821V111.243C248.571 110.272 243.41 106.309 239.832 100.764H236.244C240.334 106.607 246.569 110.825 254.598 111.821Z" fill="url(#paint3_linear_4568_3038)"/>
<path d="M270.626 19.3262V16.615L268.374 12.7091H269.665L271.186 15.3467L272.703 12.7091H273.994L271.747 16.615V19.3262H270.626ZM274.636 19.3262V12.7091H277.37C277.434 12.7091 277.517 12.7122 277.618 12.7183C277.719 12.7213 277.813 12.7305 277.898 12.7459C278.281 12.8041 278.597 12.9312 278.845 13.1273C279.096 13.3233 279.281 13.5715 279.401 13.8717C279.523 14.1688 279.585 14.4997 279.585 14.8642C279.585 15.4034 279.448 15.8675 279.176 16.2566C278.903 16.6426 278.485 16.8815 277.921 16.9734L277.448 17.0148H275.743V19.3262H274.636ZM278.436 19.3262L277.131 16.6334L278.257 16.3852L279.69 19.3262H278.436ZM275.743 15.9809H277.324C277.385 15.9809 277.454 15.9778 277.531 15.9717C277.607 15.9656 277.678 15.9533 277.742 15.9349C277.926 15.889 278.07 15.8078 278.174 15.6914C278.281 15.575 278.356 15.4432 278.399 15.2962C278.445 15.1491 278.468 15.0052 278.468 14.8642C278.468 14.7233 278.445 14.5793 278.399 14.4323C278.356 14.2822 278.281 14.1489 278.174 14.0325C278.07 13.9161 277.926 13.8349 277.742 13.789C277.678 13.7706 277.607 13.7599 277.531 13.7568C277.454 13.7507 277.385 13.7476 277.324 13.7476H275.743V15.9809ZM283.152 19.464C282.668 19.464 282.231 19.3798 281.842 19.2113C281.456 19.0428 281.138 18.8023 280.887 18.4898C280.638 18.1743 280.481 17.8006 280.413 17.3686L281.562 17.194C281.66 17.5861 281.861 17.8894 282.164 18.1039C282.47 18.3183 282.823 18.4255 283.221 18.4255C283.457 18.4255 283.679 18.3888 283.887 18.3152C284.096 18.2417 284.264 18.1345 284.393 17.9936C284.524 17.8526 284.59 17.6796 284.59 17.4743C284.59 17.3824 284.575 17.2982 284.544 17.2216C284.514 17.1419 284.468 17.0715 284.407 17.0102C284.348 16.9489 284.272 16.8938 284.177 16.8448C284.085 16.7927 283.978 16.7483 283.855 16.7115L282.146 16.206C281.999 16.1631 281.839 16.1065 281.668 16.036C281.499 15.9625 281.338 15.8629 281.185 15.7373C281.035 15.6087 280.911 15.4463 280.813 15.2502C280.718 15.0511 280.671 14.806 280.671 14.515C280.671 14.0892 280.778 13.7323 280.992 13.4443C281.21 13.1533 281.501 12.9358 281.865 12.7918C282.233 12.6478 282.64 12.5774 283.088 12.5804C283.541 12.5835 283.945 12.6616 284.301 12.8148C284.656 12.9649 284.953 13.1839 285.192 13.4719C285.431 13.7599 285.6 14.1076 285.698 14.515L284.508 14.7218C284.459 14.489 284.364 14.2914 284.223 14.129C284.085 13.9636 283.915 13.838 283.713 13.7522C283.514 13.6664 283.301 13.6205 283.074 13.6143C282.853 13.6113 282.648 13.645 282.458 13.7154C282.271 13.7828 282.12 13.8809 282.003 14.0095C281.89 14.1382 281.833 14.2883 281.833 14.4599C281.833 14.6222 281.882 14.7555 281.98 14.8596C282.078 14.9607 282.199 15.0419 282.343 15.1032C282.49 15.1614 282.639 15.2104 282.789 15.2502L283.975 15.5811C284.137 15.624 284.319 15.6822 284.521 15.7557C284.724 15.8292 284.918 15.9319 285.105 16.0636C285.292 16.1953 285.445 16.3684 285.565 16.5828C285.687 16.7973 285.748 17.0699 285.748 17.4008C285.748 17.7439 285.676 18.0456 285.532 18.306C285.391 18.5634 285.2 18.7778 284.958 18.9494C284.716 19.1209 284.439 19.2496 284.126 19.3354C283.817 19.4211 283.492 19.464 283.152 19.464Z" fill="black"/>
<path d="M270.359 58.8828C281.359 58.8829 290.451 68.3019 290.451 80.1426C290.451 91.9834 281.359 101.402 270.359 101.402C259.36 101.402 250.267 91.9834 250.267 80.1426C250.267 68.3018 259.36 58.8828 270.359 58.8828Z" stroke="#2A2A2A" stroke-width="4.05106"/>
<defs>
<linearGradient id="paint0_linear_4568_3038" x1="259.87" y1="0.955078" x2="259.87" y2="112.504" gradientUnits="userSpaceOnUse">
<stop offset="0.25" stop-color="#EC6608"/>
<stop offset="0.95" stop-color="#2A2A2A"/>
</linearGradient>
<linearGradient id="paint1_linear_4568_3038" x1="259.87" y1="0.955078" x2="259.87" y2="112.504" gradientUnits="userSpaceOnUse">
<stop offset="0.25" stop-color="#EC6608"/>
<stop offset="0.95" stop-color="#2A2A2A"/>
</linearGradient>
<linearGradient id="paint2_linear_4568_3038" x1="259.87" y1="0.955078" x2="259.87" y2="112.504" gradientUnits="userSpaceOnUse">
<stop offset="0.25" stop-color="#EC6608"/>
<stop offset="0.95" stop-color="#2A2A2A"/>
</linearGradient>
<linearGradient id="paint3_linear_4568_3038" x1="259.87" y1="0.955078" x2="259.87" y2="112.504" gradientUnits="userSpaceOnUse">
<stop offset="0.25" stop-color="#EC6608"/>
<stop offset="0.95" stop-color="#2A2A2A"/>
</linearGradient>
</defs>
</svg>
